<svg width="15" height="15" viewBox="0 0 15 15" fill="none" xmlns="http://www.w3.org/2000/svg">
<path d="M0.292786 1.29308C0.480314 1.10561 0.734622 1.00029 0.999786 1.00029C1.26495 1.00029 1.51926 1.10561 1.70679 1.29308L6.99979 6.58608L12.2928 1.29308C12.385 1.19757 12.4954 1.12139 12.6174 1.06898C12.7394 1.01657 12.8706 0.988985 13.0034 0.987831C13.1362 0.986677 13.2678 1.01198 13.3907 1.06226C13.5136 1.11254 13.6253 1.18679 13.7192 1.28069C13.8131 1.37458 13.8873 1.48623 13.9376 1.60913C13.9879 1.73202 14.0132 1.8637 14.012 1.99648C14.0109 2.12926 13.9833 2.26048 13.9309 2.38249C13.8785 2.50449 13.8023 2.61483 13.7068 2.70708L8.41379 8.00008L13.7068 13.2931C13.8889 13.4817 13.9897 13.7343 13.9875 13.9965C13.9852 14.2587 13.88 14.5095 13.6946 14.6949C13.5092 14.8803 13.2584 14.9855 12.9962 14.9878C12.734 14.99 12.4814 14.8892 12.2928 14.7071L6.99979 9.41408L1.70679 14.7071C1.51818 14.8892 1.26558 14.99 1.00339 14.9878C0.741188 14.9855 0.490376 14.8803 0.304968 14.6949C0.11956 14.5095 0.0143909 14.2587 0.0121125 13.9965C0.00983408 13.7343 0.110628 13.4817 0.292786 13.2931L5.58579 8.00008L0.292786 2.70708C0.105315 2.51955 0 2.26525 0 2.00008C0 1.73492 0.105315 1.48061 0.292786 1.29308V1.29308Z" fill="white"/>
</svg>
