<svg width="512" height="512" viewBox="0 0 512 512" fill="none" xmlns="http://www.w3.org/2000/svg">
<g clip-path="url(#clip0_103_2)">
<path d="M439.651 133.568H389.564C389.564 96.5639 374.777 62.153 347.928 36.673C321.094 11.207 285.907 -1.75704 248.842 0.19196C214.145 2.00796 181.945 17.929 158.175 45.021C136.579 69.634 124.075 100.856 122.587 133.569H72.3488C63.1288 133.569 55.6528 141.044 55.6528 150.265V495.306C55.6528 504.526 63.1278 512.002 72.3488 512.002H439.651C448.871 512.002 456.347 504.527 456.347 495.306V150.264C456.347 141.043 448.872 133.568 439.651 133.568ZM250.587 33.537C278.417 32.082 304.819 41.795 324.941 60.893C345.08 80.005 356.172 105.814 356.172 133.568H156.032C159.213 80.3999 200.403 36.165 250.587 33.537ZM422.956 478.609H89.0448V411.827H422.956V478.609ZM422.956 378.436H89.0448V166.959H122.436V217.046C122.436 226.266 129.911 233.742 139.132 233.742C148.353 233.742 155.828 226.267 155.828 217.046V166.959H356.175V217.046C356.175 226.266 363.65 233.742 372.871 233.742C382.092 233.742 389.567 226.267 389.567 217.046V166.959H422.958V378.436H422.956Z" fill="white"/>
</g>
<defs>
<clipPath id="clip0_103_2">
<rect width="512" height="512" fill="white"/>
</clipPath>
</defs>
</svg>
